CrispyCond Thin-MinGrade-shadow.ufo
<glyph name="exclam" format="2">
  <advance width="-98"/>
  <unicode hex="0021"/>
  <outline>
    <contour>
      <point x="37" y="1602" type="line"/>
      <point x="32" y="1602" type="line"/>
      <point x="-119" y="1451" type="line"/>
      <point x="-119" y="-132" type="line"/>
      <point x="-114" y="-132" type="line"/>
      <point x="37" y="19" type="line"/>
    </contour>
    <contour>
      <point x="-115" y="1449" type="line"/>
      <point x="33" y="1597" type="line"/>
      <point x="33" y="21" type="line"/>
      <point x="-115" y="-127" type="line"/>
    </contour>
    <contour>
      <point x="47" y="8" type="line"/>
      <point x="37" y="8" type="line"/>
      <point x="37" y="-2" type="line"/>
      <point x="47" y="-2" type="line"/>
    </contour>
    <contour>
      <point x="43" y="2" type="line"/>
      <point x="41" y="2" type="line"/>
      <point x="41" y="4" type="line"/>
      <point x="43" y="4" type="line"/>
    </contour>
    <component base="period" xOffset="5"/>
    <component base="period" xOffset="5"/>
    <component base="period" xOffset="5"/>
    <component base="period" xOffset="5"/>
  </outline>
</glyph>
<glyph name="comma" format="2">
  <advance width="-14"/>
  <unicode hex="002C"/>
  <outline>
    <contour>
      <point x="-29" y="-145" type="line"/>
      <point x="-29" y="-294" type="line"/>
      <point x="-24" y="-294" type="line"/>
      <point x="127" y="-143" type="line"/>
      <point x="127" y="6" type="line"/>
      <point x="122" y="6" type="line"/>
    </contour>
    <contour>
      <point x="-25" y="-147" type="line"/>
      <point x="123" y="1" type="line"/>
      <point x="123" y="-141" type="line"/>
      <point x="-25" y="-289" type="line"/>
    </contour>
  </outline>
</glyph>
<glyph name="period" format="2">
  <advance width="-94"/>
  <unicode hex="002E"/>
  <outline>
    <contour>
      <point x="42" y="8" type="line"/>
      <point x="33" y="8" type="line"/>
      <point x="-118" y="-143" type="line"/>
      <point x="-118" y="-152" type="line"/>
      <point x="-109" y="-152" type="line"/>
      <point x="42" y="-1" type="line"/>
    </contour>
    <contour>
      <point x="-111" y="-148" type="line"/>
      <point x="-114" y="-148" type="line"/>
      <point x="-114" y="-145" type="line"/>
      <point x="35" y="4" type="line"/>
      <point x="38" y="4" type="line"/>
      <point x="38" y="1" type="line"/>
    </contour>
  </outline>
</glyph>
<glyph name="zero" format="2">
  <advance width="24"/>
  <unicode hex="0030"/>
  <outline>
    <contour>
      <point x="165" y="1602" type="line"/>
      <point x="32" y="1602" type="line"/>
      <point x="-119" y="1451" type="line"/>
      <point x="-119" y="-152" type="line"/>
      <point x="14" y="-152" type="line"/>
      <point x="165" y="-1" type="line"/>
    </contour>
    <contour>
      <point x="-115" y="-148" type="line"/>
      <point x="-115" y="1449" type="line"/>
      <point x="34" y="1598" type="line"/>
      <point x="161" y="1598" type="line"/>
      <point x="161" y="1" type="line"/>
      <point x="12" y="-148" type="line"/>
    </contour>
  </outline>
</glyph>
<glyph name="two" format="2">
  <advance width="10"/>
  <unicode hex="0032"/>
  <outline>
    <contour>
      <point x="3" y="-152" type="line"/>
      <point x="154" y="-1" type="line"/>
      <point x="154" y="345" type="line"/>
      <point x="149" y="345" type="line"/>
      <point x="25" y="221" type="line"/>
      <point x="25" y="655" type="line"/>
      <point x="147" y="777" type="line"/>
      <point x="147" y="1602" type="line"/>
      <point x="23" y="1602" type="line"/>
      <point x="-128" y="1451" type="line"/>
      <point x="-128" y="1017" type="line"/>
      <point x="-123" y="1017" type="line"/>
      <point x="-9" y="1131" type="line"/>
      <point x="-9" y="753" type="line"/>
      <point x="-131" y="631" type="line"/>
      <point x="-131" y="-152" type="line"/>
    </contour>
    <contour>
      <point x="-5" y="751" type="line"/>
      <point x="-5" y="1141" type="line"/>
      <point x="-124" y="1022" type="line"/>
      <point x="-124" y="1449" type="line"/>
      <point x="25" y="1598" type="line"/>
      <point x="143" y="1598" type="line"/>
      <point x="143" y="779" type="line"/>
      <point x="21" y="657" type="line"/>
      <point x="21" y="211" type="line"/>
      <point x="150" y="340" type="line"/>
      <point x="150" y="1" type="line"/>
      <point x="1" y="-148" type="line"/>
      <point x="-127" y="-148" type="line"/>
      <point x="-127" y="629" type="line"/>
    </contour>
  </outline>
</glyph>
<glyph name="three" format="2">
  <advance width="8"/>
  <unicode hex="0033"/>
  <outline>
    <contour>
      <point x="3" y="-152" type="line"/>
      <point x="154" y="-1" type="line"/>
      <point x="154" y="812" type="line"/>
      <point x="138" y="812" type="line"/>
      <point x="138" y="1602" type="line"/>
      <point x="32" y="1602" type="line"/>
      <point x="-119" y="1451" type="line"/>
      <point x="-119" y="1007" type="line"/>
      <point x="-114" y="1007" type="line"/>
      <point x="-18" y="1103" type="line"/>
      <point x="-18" y="753" type="line"/>
      <point x="-110" y="661" type="line"/>
      <point x="-110" y="656" type="line"/>
      <point x="-2" y="656" type="line"/>
      <point x="-2" y="320" type="line"/>
      <point x="-127" y="195" type="line"/>
      <point x="-127" y="-152" type="line"/>
    </contour>
    <contour>
      <point x="2" y="318" type="line"/>
      <point x="2" y="660" type="line"/>
      <point x="-105" y="660" type="line"/>
      <point x="-14" y="751" type="line"/>
      <point x="-14" y="1113" type="line"/>
      <point x="-115" y="1012" type="line"/>
      <point x="-115" y="1449" type="line"/>
      <point x="34" y="1598" type="line"/>
      <point x="134" y="1598" type="line"/>
      <point x="134" y="808" type="line"/>
      <point x="150" y="808" type="line"/>
      <point x="150" y="1" type="line"/>
      <point x="1" y="-148" type="line"/>
      <point x="-123" y="-148" type="line"/>
      <point x="-123" y="193" type="line"/>
    </contour>
  </outline>
</glyph>
<glyph name="four" format="2">
  <advance width="21"/>
  <unicode hex="0034"/>
  <outline>
    <contour>
      <point x="-14" y="-152" type="line"/>
      <point x="137" y="-1" type="line"/>
      <point x="137" y="779" type="line"/>
      <point x="169" y="811" type="line"/>
      <point x="169" y="816" type="line"/>
      <point x="137" y="816" type="line"/>
      <point x="137" y="1602" type="line"/>
      <point x="132" y="1602" type="line"/>
      <point x="30" y="1500" type="line"/>
      <point x="30" y="1603" type="line"/>
      <point x="25" y="1603" type="line"/>
      <point x="-126" y="1452" type="line"/>
      <point x="-126" y="660" type="line"/>
      <point x="-19" y="660" type="line"/>
      <point x="-19" y="-152" type="line"/>
    </contour>
    <contour>
      <point x="133" y="812" type="line"/>
      <point x="164" y="812" type="line"/>
      <point x="133" y="781" type="line"/>
      <point x="133" y="1" type="line"/>
      <point x="-15" y="-147" type="line"/>
      <point x="-15" y="664" type="line"/>
      <point x="-122" y="664" type="line"/>
      <point x="-122" y="1450" type="line"/>
      <point x="26" y="1598" type="line"/>
      <point x="26" y="1490" type="line"/>
      <point x="133" y="1597" type="line"/>
    </contour>
  </outline>
</glyph>
<glyph name="five" format="2">
  <advance width="1"/>
  <unicode hex="0035"/>
  <outline>
    <contour>
      <point x="-2" y="-152" type="line"/>
      <point x="149" y="-1" type="line"/>
      <point x="149" y="803" type="line"/>
      <point x="29" y="803" type="line"/>
      <point x="29" y="1477" type="line"/>
      <point x="149" y="1597" type="line"/>
      <point x="149" y="1602" type="line"/>
      <point x="24" y="1602" type="line"/>
      <point x="-127" y="1451" type="line"/>
      <point x="-127" y="647" type="line"/>
      <point x="-7" y="647" type="line"/>
      <point x="-7" y="214" type="line"/>
      <point x="-125" y="96" type="line"/>
      <point x="-125" y="-152" type="line"/>
    </contour>
    <contour>
      <point x="-3" y="212" type="line"/>
      <point x="-3" y="651" type="line"/>
      <point x="-123" y="651" type="line"/>
      <point x="-123" y="1449" type="line"/>
      <point x="26" y="1598" type="line"/>
      <point x="144" y="1598" type="line"/>
      <point x="25" y="1479" type="line"/>
      <point x="25" y="799" type="line"/>
      <point x="145" y="799" type="line"/>
      <point x="145" y="1" type="line"/>
      <point x="-4" y="-148" type="line"/>
      <point x="-121" y="-148" type="line"/>
      <point x="-121" y="94" type="line"/>
    </contour>
  </outline>
</glyph>
<glyph name="nine" format="2">
  <advance width="10"/>
  <unicode hex="0039"/>
  <outline>
    <contour>
      <point x="6" y="-152" type="line"/>
      <point x="157" y="-1" type="line"/>
      <point x="157" y="1602" type="line"/>
      <point x="27" y="1602" type="line"/>
      <point x="-124" y="1451" type="line"/>
      <point x="-124" y="647" type="line"/>
      <point x="1" y="647" type="line"/>
      <point x="1" y="217" type="line"/>
      <point x="-124" y="92" type="line"/>
      <point x="-124" y="-152" type="line"/>
    </contour>
    <contour>
      <point x="5" y="215" type="line"/>
      <point x="5" y="651" type="line"/>
      <point x="-120" y="651" type="line"/>
      <point x="-120" y="1449" type="line"/>
      <point x="29" y="1598" type="line"/>
      <point x="153" y="1598" type="line"/>
      <point x="153" y="1" type="line"/>
      <point x="4" y="-148" type="line"/>
      <point x="-120" y="-148" type="line"/>
      <point x="-120" y="90" type="line"/>
    </contour>
  </outline>
</glyph>
<glyph name="A" format="2">
  <advance width="19"/>
  <unicode hex="0041"/>
  <outline>
    <contour>
      <point x="10" y="-152" type="line"/>
      <point x="161" y="-1" type="line"/>
      <point x="161" y="1602" type="line"/>
      <point x="66" y="1602" type="line"/>
      <point x="-85" y="1451" type="line"/>
      <point x="-123" y="1285" type="line"/>
      <point x="-123" y="-152" type="line"/>
      <point x="-118" y="-152" type="line"/>
      <point x="5" y="-29" type="line"/>
      <point x="5" y="-152" type="line"/>
    </contour>
    <contour>
      <point x="9" y="-19" type="line"/>
      <point x="-119" y="-147" type="line"/>
      <point x="-119" y="1285" type="line"/>
      <point x="-81" y="1449" type="line"/>
      <point x="68" y="1598" type="line"/>
      <point x="157" y="1598" type="line"/>
      <point x="157" y="1" type="line"/>
      <point x="9" y="-147" type="line"/>
    </contour>
  </outline>
</glyph>
<glyph name="B" format="2">
  <advance width="17"/>
  <unicode hex="0042"/>
  <outline>
    <contour>
      <point x="-25" y="-152" type="line"/>
      <point x="126" y="-1" type="line"/>
      <point x="164" y="166" type="line"/>
      <point x="164" y="803" type="line"/>
      <point x="139" y="803" type="line"/>
      <point x="139" y="1602" type="line"/>
      <point x="33" y="1602" type="line"/>
      <point x="-118" y="1451" type="line"/>
      <point x="-118" y="-152" type="line"/>
    </contour>
    <contour>
      <point x="135" y="799" type="line"/>
      <point x="160" y="799" type="line"/>
      <point x="160" y="166" type="line"/>
      <point x="122" y="1" type="line"/>
      <point x="-27" y="-148" type="line"/>
      <point x="-114" y="-148" type="line"/>
      <point x="-114" y="1449" type="line"/>
      <point x="35" y="1598" type="line"/>
      <point x="135" y="1598" type="line"/>
    </contour>
  </outline>
</glyph>
<glyph name="E" format="2">
  <advance width="5"/>
  <unicode hex="0045"/>
  <outline>
    <contour>
      <point x="2" y="-152" type="line"/>
      <point x="153" y="-1" type="line"/>
      <point x="153" y="445" type="line"/>
      <point x="148" y="445" type="line"/>
      <point x="38" y="335" type="line"/>
      <point x="38" y="693" type="line"/>
      <point x="143" y="798" type="line"/>
      <point x="143" y="803" type="line"/>
      <point x="38" y="803" type="line"/>
      <point x="38" y="1044" type="line"/>
      <point x="152" y="1158" type="line"/>
      <point x="152" y="1602" type="line"/>
      <point x="33" y="1602" type="line"/>
      <point x="-118" y="1451" type="line"/>
      <point x="-118" y="-152" type="line"/>
    </contour>
    <contour>
      <point x="34" y="1046" type="line"/>
      <point x="34" y="799" type="line"/>
      <point x="138" y="799" type="line"/>
      <point x="34" y="695" type="line"/>
      <point x="34" y="325" type="line"/>
      <point x="149" y="440" type="line"/>
      <point x="149" y="1" type="line"/>
      <point x="0" y="-148" type="line"/>
      <point x="-114" y="-148" type="line"/>
      <point x="-114" y="1449" type="line"/>
      <point x="35" y="1598" type="line"/>
      <point x="148" y="1598" type="line"/>
      <point x="148" y="1160" type="line"/>
    </contour>
  </outline>
</glyph>
<glyph name="F" format="2">
  <advance width="5"/>
  <unicode hex="0046"/>
  <outline>
    <contour>
      <point x="-113" y="-152" type="line"/>
      <point x="38" y="-1" type="line"/>
      <point x="38" y="686" type="line"/>
      <point x="150" y="798" type="line"/>
      <point x="150" y="803" type="line"/>
      <point x="38" y="803" type="line"/>
      <point x="38" y="1042" type="line"/>
      <point x="154" y="1158" type="line"/>
      <point x="154" y="1602" type="line"/>
      <point x="33" y="1602" type="line"/>
      <point x="-118" y="1451" type="line"/>
      <point x="-118" y="-152" type="line"/>
    </contour>
    <contour>
      <point x="34" y="1044" type="line"/>
      <point x="34" y="799" type="line"/>
      <point x="145" y="799" type="line"/>
      <point x="34" y="688" type="line"/>
      <point x="34" y="1" type="line"/>
      <point x="-114" y="-147" type="line"/>
      <point x="-114" y="1449" type="line"/>
      <point x="35" y="1598" type="line"/>
      <point x="150" y="1598" type="line"/>
      <point x="150" y="1160" type="line"/>
    </contour>
  </outline>
</glyph>
<glyph name="G" format="2">
  <advance width="11"/>
  <unicode hex="0047"/>
  <outline>
    <contour>
      <point x="7" y="-152" type="line"/>
      <point x="158" y="-1" type="line"/>
      <point x="158" y="803" type="line"/>
      <point x="84" y="803" type="line"/>
      <point x="32" y="751" type="line"/>
      <point x="32" y="1030" type="line"/>
      <point x="160" y="1158" type="line"/>
      <point x="160" y="1602" type="line"/>
      <point x="65" y="1602" type="line"/>
      <point x="-86" y="1451" type="line"/>
      <point x="-124" y="1284" type="line"/>
      <point x="-124" y="-152" type="line"/>
    </contour>
    <contour>
      <point x="28" y="1032" type="line"/>
      <point x="28" y="741" type="line"/>
      <point x="86" y="799" type="line"/>
      <point x="154" y="799" type="line"/>
      <point x="154" y="1" type="line"/>
      <point x="5" y="-148" type="line"/>
      <point x="-120" y="-148" type="line"/>
      <point x="-120" y="1284" type="line"/>
      <point x="-82" y="1449" type="line"/>
      <point x="67" y="1598" type="line"/>
      <point x="156" y="1598" type="line"/>
      <point x="156" y="1160" type="line"/>
    </contour>
  </outline>
</glyph>
<glyph name="H" format="2">
  <advance width="21"/>
  <unicode hex="0048"/>
  <outline>
    <contour>
      <point x="10" y="-152" type="line"/>
      <point x="161" y="-1" type="line"/>
      <point x="161" y="1602" type="line"/>
      <point x="156" y="1602" type="line"/>
      <point x="37" y="1483" type="line"/>
      <point x="37" y="1602" type="line"/>
      <point x="32" y="1602" type="line"/>
      <point x="-119" y="1451" type="line"/>
      <point x="-119" y="-152" type="line"/>
      <point x="-114" y="-152" type="line"/>
      <point x="5" y="-33" type="line"/>
      <point x="5" y="-152" type="line"/>
    </contour>
    <contour>
      <point x="33" y="1473" type="line"/>
      <point x="157" y="1597" type="line"/>
      <point x="157" y="1" type="line"/>
      <point x="9" y="-147" type="line"/>
      <point x="9" y="-23" type="line"/>
      <point x="-115" y="-147" type="line"/>
      <point x="-115" y="1449" type="line"/>
      <point x="33" y="1597" type="line"/>
    </contour>
  </outline>
</glyph>
<glyph name="J" format="2">
  <advance width="-6"/>
  <unicode hex="004A"/>
  <outline>
    <contour>
      <point x="-8" y="-152" type="line"/>
      <point x="143" y="-1" type="line"/>
      <point x="143" y="1602" type="line"/>
      <point x="138" y="1602" type="line"/>
      <point x="-13" y="1451" type="line"/>
      <point x="-13" y="524" type="line"/>
      <point x="-115" y="422" type="line"/>
      <point x="-115" y="-152" type="line"/>
    </contour>
    <contour>
      <point x="-9" y="522" type="line"/>
      <point x="-9" y="1449" type="line"/>
      <point x="139" y="1597" type="line"/>
      <point x="139" y="1" type="line"/>
      <point x="-10" y="-148" type="line"/>
      <point x="-111" y="-148" type="line"/>
      <point x="-111" y="420" type="line"/>
    </contour>
  </outline>
</glyph>
<glyph name="K" format="2">
  <advance width="17"/>
  <unicode hex="004B"/>
  <outline>
    <contour>
      <point x="19" y="-152" type="line"/>
      <point x="170" y="-1" type="line"/>
      <point x="170" y="803" type="line"/>
      <point x="132" y="803" type="line"/>
      <point x="166" y="1602" type="line"/>
      <point x="161" y="1602" type="line"/>
      <point x="44" y="1485" type="line"/>
      <point x="44" y="1602" type="line"/>
      <point x="39" y="1602" type="line"/>
      <point x="-112" y="1451" type="line"/>
      <point x="-112" y="-152" type="line"/>
      <point x="-107" y="-152" type="line"/>
      <point x="14" y="-31" type="line"/>
      <point x="14" y="-152" type="line"/>
    </contour>
    <contour>
      <point x="40" y="1475" type="line"/>
      <point x="162" y="1597" type="line"/>
      <point x="128" y="799" type="line"/>
      <point x="166" y="799" type="line"/>
      <point x="166" y="1" type="line"/>
      <point x="18" y="-147" type="line"/>
      <point x="18" y="-21" type="line"/>
      <point x="-108" y="-147" type="line"/>
      <point x="-108" y="1449" type="line"/>
      <point x="40" y="1597" type="line"/>
    </contour>
  </outline>
</glyph>
<glyph name="M" format="2">
  <advance width="104"/>
  <unicode hex="004D"/>
  <outline>
    <contour>
      <point x="45" y="2" type="line"/>
      <point x="40" y="2" type="line"/>
      <point x="40" y="164" type="line"/>
      <point x="83" y="207" type="line"/>
      <point x="83" y="-152" type="line"/>
      <point x="88" y="-152" type="line"/>
      <point x="242" y="2" type="line"/>
      <point x="237" y="2" type="line"/>
      <point x="237" y="1600" type="line"/>
      <point x="216" y="1600" type="line"/>
      <point x="216" y="1600" type="line"/>
      <point x="216" y="1605" type="line"/>
      <point x="68" y="1457" type="line"/>
      <point x="61" y="1600" type="line"/>
      <point x="40" y="1600" type="line"/>
      <point x="40" y="1605" type="line"/>
      <point x="-114" y="1451" type="line"/>
      <point x="-114" y="-152" type="line"/>
      <point x="-109" y="-152" type="line"/>
    </contour>
    <contour>
      <point x="36" y="166" type="line"/>
      <point x="36" y="-1" type="line"/>
      <point x="-110" y="-147" type="line"/>
      <point x="-110" y="1449" type="line"/>
      <point x="36" y="1595" type="line"/>
      <point x="36" y="1591" type="line"/>
      <point x="41" y="1596" type="line"/>
      <point x="57" y="1596" type="line"/>
      <point x="64" y="1447" type="line"/>
      <point x="212" y="1595" type="line"/>
      <point x="212" y="1590" type="line"/>
      <point x="218" y="1596" type="line"/>
      <point x="233" y="1596" type="line"/>
      <point x="233" y="-1" type="line"/>
      <point x="87" y="-147" type="line"/>
      <point x="87" y="217" type="line"/>
    </contour>
  </outline>
</glyph>
<glyph name="N" format="2">
  <advance width="44"/>
  <unicode hex="004E"/>
  <outline>
    <contour>
      <point x="32" y="-152" type="line"/>
      <point x="183" y="-1" type="line"/>
      <point x="183" y="1602" type="line"/>
      <point x="178" y="1602" type="line"/>
      <point x="66" y="1490" type="line"/>
      <point x="58" y="1602" type="line"/>
      <point x="34" y="1602" type="line"/>
      <point x="-117" y="1451" type="line"/>
      <point x="-117" y="-152" type="line"/>
      <point x="-112" y="-152" type="line"/>
      <point x="-1" y="-41" type="line"/>
      <point x="6" y="-152" type="line"/>
    </contour>
    <contour>
      <point x="3" y="-31" type="line"/>
      <point x="-113" y="-147" type="line"/>
      <point x="-113" y="1449" type="line"/>
      <point x="36" y="1598" type="line"/>
      <point x="54" y="1598" type="line"/>
      <point x="62" y="1480" type="line"/>
      <point x="179" y="1597" type="line"/>
      <point x="179" y="1" type="line"/>
      <point x="30" y="-148" type="line"/>
      <point x="10" y="-148" type="line"/>
    </contour>
  </outline>
</glyph>
<glyph name="P" format="2">
  <advance width="11"/>
  <unicode hex="0050"/>
  <outline>
    <contour>
      <point x="-112" y="-152" type="line"/>
      <point x="39" y="-1" type="line"/>
      <point x="39" y="629" type="line"/>
      <point x="159" y="749" type="line"/>
      <point x="159" y="1602" type="line"/>
      <point x="34" y="1602" type="line"/>
      <point x="-117" y="1451" type="line"/>
      <point x="-117" y="-152" type="line"/>
    </contour>
    <contour>
      <point x="35" y="631" type="line"/>
      <point x="35" y="1" type="line"/>
      <point x="-113" y="-147" type="line"/>
      <point x="-113" y="1449" type="line"/>
      <point x="36" y="1598" type="line"/>
      <point x="155" y="1598" type="line"/>
      <point x="155" y="751" type="line"/>
    </contour>
  </outline>
</glyph>
<glyph name="Q" format="2">
  <advance width="19"/>
  <unicode hex="0051"/>
  <outline>
    <contour>
      <point x="95" y="-151" type="line"/>
      <point x="95" y="-65" type="line"/>
      <point x="159" y="-1" type="line"/>
      <point x="159" y="1602" type="line"/>
      <point x="63" y="1602" type="line"/>
      <point x="-88" y="1451" type="line"/>
      <point x="-126" y="1284" type="line"/>
      <point x="-126" y="-152" type="line"/>
      <point x="-61" y="-152" type="line"/>
      <point x="-61" y="-302" type="line"/>
      <point x="-56" y="-302" type="line"/>
    </contour>
    <contour>
      <point x="-57" y="-148" type="line"/>
      <point x="-122" y="-148" type="line"/>
      <point x="-122" y="1284" type="line"/>
      <point x="-84" y="1449" type="line"/>
      <point x="65" y="1598" type="line"/>
      <point x="155" y="1598" type="line"/>
      <point x="155" y="1" type="line"/>
      <point x="91" y="-63" type="line"/>
      <point x="91" y="-149" type="line"/>
      <point x="-57" y="-297" type="line"/>
    </contour>
  </outline>
</glyph>
<glyph name="S" format="2">
  <advance width="7"/>
  <unicode hex="0053"/>
  <outline>
    <contour>
      <point x="-33" y="-152" type="line"/>
      <point x="118" y="-1" type="line"/>
      <point x="155" y="157" type="line"/>
      <point x="155" y="803" type="line"/>
      <point x="29" y="803" type="line"/>
      <point x="29" y="1037" type="line"/>
      <point x="151" y="1159" type="line"/>
      <point x="151" y="1602" type="line"/>
      <point x="62" y="1602" type="line"/>
      <point x="-89" y="1451" type="line"/>
      <point x="-127" y="1285" type="line"/>
      <point x="-127" y="647" type="line"/>
      <point x="-1" y="647" type="line"/>
      <point x="-1" y="319" type="line"/>
      <point x="-125" y="195" type="line"/>
      <point x="-125" y="-152" type="line"/>
    </contour>
    <contour>
      <point x="3" y="317" type="line"/>
      <point x="3" y="651" type="line"/>
      <point x="-123" y="651" type="line"/>
      <point x="-123" y="1285" type="line"/>
      <point x="-85" y="1449" type="line"/>
      <point x="64" y="1598" type="line"/>
      <point x="147" y="1598" type="line"/>
      <point x="147" y="1161" type="line"/>
      <point x="25" y="1039" type="line"/>
      <point x="25" y="799" type="line"/>
      <point x="151" y="799" type="line"/>
      <point x="151" y="157" type="line"/>
      <point x="114" y="1" type="line"/>
      <point x="-35" y="-148" type="line"/>
      <point x="-121" y="-148" type="line"/>
      <point x="-121" y="193" type="line"/>
    </contour>
  </outline>
</glyph>
<glyph name="T" format="2">
  <advance width="10"/>
  <unicode hex="0054"/>
  <outline>
    <contour>
      <point x="-57" y="-152" type="line"/>
      <point x="94" y="-1" type="line"/>
      <point x="94" y="1529" type="line"/>
      <point x="162" y="1597" type="line"/>
      <point x="162" y="1602" type="line"/>
      <point x="20" y="1602" type="line"/>
      <point x="-131" y="1451" type="line"/>
      <point x="-131" y="1446" type="line"/>
      <point x="-62" y="1446" type="line"/>
      <point x="-62" y="-152" type="line"/>
    </contour>
    <contour>
      <point x="-58" y="1450" type="line"/>
      <point x="-126" y="1450" type="line"/>
      <point x="22" y="1598" type="line"/>
      <point x="157" y="1598" type="line"/>
      <point x="90" y="1531" type="line"/>
      <point x="90" y="1" type="line"/>
      <point x="-58" y="-147" type="line"/>
    </contour>
  </outline>
</glyph>
<glyph name="C.wide.shadow" format="2">
  <advance width="-161"/>
  <outline>
    <contour>
      <point x="-146" y="-302" type="line"/>
      <point x="158" y="2" type="line"/>
      <point x="28" y="2" type="line"/>
      <point x="28" y="1291" type="line"/>
      <point x="30" y="1293" type="line"/>
      <point x="64" y="1507" type="line"/>
      <point x="157" y="1600" type="line"/>
      <point x="76" y="1600" type="line"/>
      <point x="77" y="1606" type="line"/>
      <point x="-228" y="1301" type="line"/>
      <point x="-276" y="995" type="line"/>
      <point x="-276" y="-302" type="line"/>
    </contour>
    <contour>
      <point x="60" y="1509" type="line"/>
      <point x="26" y="1295" type="line"/>
      <point x="24" y="1293" type="line"/>
      <point x="24" y="-2" type="line"/>
      <point x="148" y="-2" type="line"/>
      <point x="-148" y="-298" type="line"/>
      <point x="-272" y="-298" type="line"/>
      <point x="-272" y="995" type="line"/>
      <point x="-224" y="1299" type="line"/>
      <point x="71" y="1594" type="line"/>
      <point x="70" y="1589" type="line"/>
      <point x="77" y="1596" type="line"/>
      <point x="147" y="1596" type="line"/>
    </contour>
  </outline>
</glyph>
<glyph name="D.shadow" format="2">
  <advance width="-151"/>
  <outline>
    <contour>
      <point x="130" y="2" type="line"/>
      <point x="125" y="2" type="line"/>
      <point x="163" y="167" type="line"/>
      <point x="163" y="1600" type="line"/>
      <point x="34" y="1600" type="line"/>
      <point x="34" y="1605" type="line"/>
      <point x="-270" y="1301" type="line"/>
      <point x="-270" y="-302" type="line"/>
      <point x="-174" y="-302" type="line"/>
    </contour>
    <contour>
      <point x="30" y="1591" type="line"/>
      <point x="35" y="1596" type="line"/>
      <point x="159" y="1596" type="line"/>
      <point x="159" y="167" type="line"/>
      <point x="121" y="3" type="line"/>
      <point x="116" y="-2" type="line"/>
      <point x="120" y="-2" type="line"/>
      <point x="-176" y="-298" type="line"/>
      <point x="-266" y="-298" type="line"/>
      <point x="-266" y="1299" type="line"/>
      <point x="30" y="1595" type="line"/>
    </contour>
  </outline>
</glyph>
<glyph name="E.shadow" format="2">
  <advance width="-165"/>
  <outline>
    <contour>
      <point x="151" y="2" type="line"/>
      <point x="151" y="448" type="line"/>
      <point x="36" y="333" type="line"/>
      <point x="36" y="691" type="line"/>
      <point x="146" y="801" type="line"/>
      <point x="36" y="801" type="line"/>
      <point x="36" y="1042" type="line"/>
      <point x="155" y="1161" type="line"/>
      <point x="150" y="1161" type="line"/>
      <point x="150" y="1600" type="line"/>
      <point x="36" y="1600" type="line"/>
      <point x="36" y="1605" type="line"/>
      <point x="-268" y="1301" type="line"/>
      <point x="-268" y="-302" type="line"/>
      <point x="-148" y="-302" type="line"/>
      <point x="156" y="2" type="line"/>
    </contour>
    <contour>
      <point x="32" y="1044" type="line"/>
      <point x="32" y="792" type="line"/>
      <point x="37" y="797" type="line"/>
      <point x="136" y="797" type="line"/>
      <point x="32" y="693" type="line"/>
      <point x="32" y="323" type="line"/>
      <point x="147" y="438" type="line"/>
      <point x="147" y="3" type="line"/>
      <point x="142" y="-2" type="line"/>
      <point x="146" y="-2" type="line"/>
      <point x="-150" y="-298" type="line"/>
      <point x="-264" y="-298" type="line"/>
      <point x="-264" y="1299" type="line"/>
      <point x="32" y="1595" type="line"/>
      <point x="32" y="1591" type="line"/>
      <point x="37" y="1596" type="line"/>
      <point x="146" y="1596" type="line"/>
      <point x="146" y="1158" type="line"/>
    </contour>
  </outline>
</glyph>
<glyph name="E.wide" format="2">
  <advance width="-36"/>
  <outline>
    <contour>
      <point x="115" y="-1" type="line"/>
      <point x="115" y="4" type="line"/>
      <point x="35" y="4" type="line"/>
      <point x="35" y="727" type="line"/>
      <point x="106" y="798" type="line"/>
      <point x="106" y="803" type="line"/>
      <point x="35" y="803" type="line"/>
      <point x="35" y="1518" type="line"/>
      <point x="114" y="1597" type="line"/>
      <point x="114" y="1602" type="line"/>
      <point x="30" y="1602" type="line"/>
      <point x="-121" y="1451" type="line"/>
      <point x="-121" y="-152" type="line"/>
      <point x="-36" y="-152" type="line"/>
    </contour>
    <contour>
      <point x="31" y="729" type="line"/>
      <point x="31" y="0" type="line"/>
      <point x="110" y="0" type="line"/>
      <point x="-38" y="-148" type="line"/>
      <point x="-117" y="-148" type="line"/>
      <point x="-117" y="1449" type="line"/>
      <point x="32" y="1598" type="line"/>
      <point x="109" y="1598" type="line"/>
      <point x="31" y="1520" type="line"/>
      <point x="31" y="799" type="line"/>
      <point x="101" y="799" type="line"/>
    </contour>
  </outline>
</glyph>
<glyph name="F.wide" format="2">
  <advance width="-12"/>
  <outline>
    <contour>
      <point x="-115" y="-152" type="line"/>
      <point x="36" y="-1" type="line"/>
      <point x="36" y="700" type="line"/>
      <point x="134" y="798" type="line"/>
      <point x="134" y="803" type="line"/>
      <point x="36" y="803" type="line"/>
      <point x="36" y="1496" type="line"/>
      <point x="137" y="1597" type="line"/>
      <point x="137" y="1602" type="line"/>
      <point x="31" y="1602" type="line"/>
      <point x="-120" y="1451" type="line"/>
      <point x="-120" y="-152" type="line"/>
    </contour>
    <contour>
      <point x="32" y="1498" type="line"/>
      <point x="32" y="799" type="line"/>
      <point x="129" y="799" type="line"/>
      <point x="32" y="702" type="line"/>
      <point x="32" y="1" type="line"/>
      <point x="-116" y="-147" type="line"/>
      <point x="-116" y="1449" type="line"/>
      <point x="33" y="1598" type="line"/>
      <point x="132" y="1598" type="line"/>
    </contour>
  </outline>
</glyph>
<glyph name="G.wide.shadow" format="2">
  <advance width="-169"/>
  <outline>
    <contour>
      <point x="155" y="2" type="line"/>
      <point x="155" y="801" type="line"/>
      <point x="90" y="801" type="line"/>
      <point x="90" y="806" type="line"/>
      <point x="29" y="745" type="line"/>
      <point x="29" y="1291" type="line"/>
      <point x="31" y="1293" type="line"/>
      <point x="65" y="1506" type="line"/>
      <point x="159" y="1600" type="line"/>
      <point x="77" y="1600" type="line"/>
      <point x="78" y="1606" type="line"/>
      <point x="-227" y="1301" type="line"/>
      <point x="-275" y="995" type="line"/>
      <point x="-275" y="-302" type="line"/>
      <point x="-144" y="-302" type="line"/>
      <point x="160" y="2" type="line"/>
    </contour>
    <contour>
      <point x="71" y="1589" type="line"/>
      <point x="78" y="1596" type="line"/>
      <point x="149" y="1596" type="line"/>
      <point x="61" y="1508" type="line"/>
      <point x="27" y="1295" type="line"/>
      <point x="25" y="1293" type="line"/>
      <point x="25" y="735" type="line"/>
      <point x="87" y="797" type="line"/>
      <point x="151" y="797" type="line"/>
      <point x="151" y="3" type="line"/>
      <point x="146" y="-2" type="line"/>
      <point x="150" y="-2" type="line"/>
      <point x="-146" y="-298" type="line"/>
      <point x="-271" y="-298" type="line"/>
      <point x="-271" y="995" type="line"/>
      <point x="-223" y="1299" type="line"/>
      <point x="72" y="1594" type="line"/>
    </contour>
  </outline>
</glyph>
<glyph name="H.shadow" format="2">
  <advance width="-149"/>
  <outline>
    <contour>
      <point x="159" y="2" type="line"/>
      <point x="159" y="1605" type="line"/>
      <point x="35" y="1481" type="line"/>
      <point x="35" y="1605" type="line"/>
      <point x="-269" y="1301" type="line"/>
      <point x="-269" y="-302" type="line"/>
      <point x="-264" y="-302" type="line"/>
      <point x="-145" y="-183" type="line"/>
      <point x="-145" y="-302" type="line"/>
      <point x="-140" y="-302" type="line"/>
      <point x="164" y="2" type="line"/>
    </contour>
    <contour>
      <point x="31" y="1471" type="line"/>
      <point x="155" y="1595" type="line"/>
      <point x="155" y="802" type="line"/>
      <point x="150" y="797" type="line"/>
      <point x="155" y="797" type="line"/>
      <point x="155" y="-1" type="line"/>
      <point x="-141" y="-297" type="line"/>
      <point x="-141" y="-173" type="line"/>
      <point x="-265" y="-297" type="line"/>
      <point x="-265" y="1299" type="line"/>
      <point x="31" y="1595" type="line"/>
    </contour>
  </outline>
</glyph>
<glyph name="I.shadow" format="2">
  <advance width="-166"/>
  <outline>
    <contour>
      <point x="25" y="1605" type="line"/>
      <point x="-279" y="1301" type="line"/>
      <point x="-279" y="1296" type="line"/>
      <point x="-217" y="1296" type="line"/>
      <point x="-217" y="-235" type="line"/>
      <point x="-279" y="-297" type="line"/>
      <point x="-279" y="-302" type="line"/>
      <point x="-149" y="-302" type="line"/>
      <point x="155" y="2" type="line"/>
      <point x="87" y="2" type="line"/>
      <point x="87" y="1532" type="line"/>
      <point x="155" y="1600" type="line"/>
      <point x="25" y="1600" type="line"/>
    </contour>
    <contour>
      <point x="-213" y="-237" type="line"/>
      <point x="-213" y="1300" type="line"/>
      <point x="-274" y="1300" type="line"/>
      <point x="22" y="1596" type="line"/>
      <point x="83" y="1596" type="line"/>
      <point x="83" y="1591" type="line"/>
      <point x="88" y="1596" type="line"/>
      <point x="145" y="1596" type="line"/>
      <point x="83" y="1534" type="line"/>
      <point x="83" y="3" type="line"/>
      <point x="78" y="-2" type="line"/>
      <point x="145" y="-2" type="line"/>
      <point x="-151" y="-298" type="line"/>
      <point x="-274" y="-298" type="line"/>
    </contour>
  </outline>
</glyph>
<glyph name="J.shadow" format="2">
  <advance width="-175"/>
  <outline>
    <contour>
      <point x="146" y="2" type="line"/>
      <point x="141" y="2" type="line"/>
      <point x="141" y="1605" type="line"/>
      <point x="-163" y="1301" type="line"/>
      <point x="-163" y="374" type="line"/>
      <point x="-265" y="272" type="line"/>
      <point x="-265" y="-302" type="line"/>
      <point x="-158" y="-302" type="line"/>
    </contour>
    <contour>
      <point x="-159" y="372" type="line"/>
      <point x="-159" y="1299" type="line"/>
      <point x="137" y="1595" type="line"/>
      <point x="137" y="3" type="line"/>
      <point x="132" y="-2" type="line"/>
      <point x="136" y="-2" type="line"/>
      <point x="-160" y="-298" type="line"/>
      <point x="-261" y="-298" type="line"/>
      <point x="-261" y="270" type="line"/>
    </contour>
  </outline>
</glyph>
<glyph name="L.wide" format="2">
  <advance width="-20"/>
  <outline>
    <contour>
      <point x="127" y="-1" type="line"/>
      <point x="127" y="4" type="line"/>
      <point x="36" y="4" type="line"/>
      <point x="36" y="1602" type="line"/>
      <point x="31" y="1602" type="line"/>
      <point x="-120" y="1451" type="line"/>
      <point x="-120" y="-152" type="line"/>
      <point x="-24" y="-152" type="line"/>
    </contour>
    <contour>
      <point x="32" y="0" type="line"/>
      <point x="122" y="0" type="line"/>
      <point x="-26" y="-148" type="line"/>
      <point x="-116" y="-148" type="line"/>
      <point x="-116" y="1449" type="line"/>
      <point x="32" y="1597" type="line"/>
    </contour>
  </outline>
</glyph>
<glyph name="M.shadow" format="2">
  <advance width="-65"/>
  <outline>
    <contour>
      <point x="-62" y="-302" type="line"/>
      <point x="239" y="-1" type="line"/>
      <point x="239" y="1602" type="line"/>
      <point x="213" y="1602" type="line"/>
      <point x="70" y="1459" type="line"/>
      <point x="63" y="1602" type="line"/>
      <point x="37" y="1602" type="line"/>
      <point x="-264" y="1301" type="line"/>
      <point x="-264" y="-302" type="line"/>
      <point x="-259" y="-302" type="line"/>
      <point x="-67" y="-110" type="line"/>
      <point x="-67" y="-302" type="line"/>
    </contour>
    <contour>
      <point x="66" y="1449" type="line"/>
      <point x="215" y="1598" type="line"/>
      <point x="235" y="1598" type="line"/>
      <point x="235" y="1" type="line"/>
      <point x="-63" y="-297" type="line"/>
      <point x="-63" y="-100" type="line"/>
      <point x="-260" y="-297" type="line"/>
      <point x="-260" y="1299" type="line"/>
      <point x="39" y="1598" type="line"/>
      <point x="59" y="1598" type="line"/>
    </contour>
  </outline>
</glyph>
<glyph name="N.shadow" format="2">
  <advance width="-125"/>
  <outline>
    <contour>
      <point x="181" y="2" type="line"/>
      <point x="181" y="1605" type="line"/>
      <point x="66" y="1490" type="line"/>
      <point x="58" y="1605" type="line"/>
      <point x="53" y="1600" type="line"/>
      <point x="37" y="1600" type="line"/>
      <point x="37" y="1605" type="line"/>
      <point x="-267" y="1301" type="line"/>
      <point x="-267" y="-302" type="line"/>
      <point x="-262" y="-302" type="line"/>
      <point x="-151" y="-191" type="line"/>
      <point x="-144" y="-302" type="line"/>
      <point x="-118" y="-302" type="line"/>
      <point x="186" y="2" type="line"/>
    </contour>
    <contour>
      <point x="172" y="-2" type="line"/>
      <point x="176" y="-2" type="line"/>
      <point x="-120" y="-298" type="line"/>
      <point x="-140" y="-298" type="line"/>
      <point x="-147" y="-181" type="line"/>
      <point x="-263" y="-297" type="line"/>
      <point x="-263" y="1299" type="line"/>
      <point x="33" y="1595" type="line"/>
      <point x="33" y="1591" type="line"/>
      <point x="38" y="1596" type="line"/>
      <point x="54" y="1596" type="line"/>
      <point x="62" y="1480" type="line"/>
      <point x="177" y="1595" type="line"/>
      <point x="177" y="3" type="line"/>
    </contour>
  </outline>
</glyph>
<glyph name="N.wide.shadow" format="2">
  <advance width="-118"/>
  <outline>
    <contour>
      <point x="184" y="2" type="line"/>
      <point x="184" y="1605" type="line"/>
      <point x="68" y="1489" type="line"/>
      <point x="60" y="1605" type="line"/>
      <point x="55" y="1600" type="line"/>
      <point x="39" y="1600" type="line"/>
      <point x="39" y="1605" type="line"/>
      <point x="-265" y="1301" type="line"/>
      <point x="-265" y="-302" type="line"/>
      <point x="-260" y="-302" type="line"/>
      <point x="-149" y="-191" type="line"/>
      <point x="-142" y="-302" type="line"/>
      <point x="-115" y="-302" type="line"/>
      <point x="189" y="2" type="line"/>
    </contour>
    <contour>
      <point x="175" y="-2" type="line"/>
      <point x="179" y="-2" type="line"/>
      <point x="-117" y="-298" type="line"/>
      <point x="-138" y="-298" type="line"/>
      <point x="-145" y="-181" type="line"/>
      <point x="-261" y="-297" type="line"/>
      <point x="-261" y="1299" type="line"/>
      <point x="35" y="1595" type="line"/>
      <point x="35" y="1591" type="line"/>
      <point x="40" y="1596" type="line"/>
      <point x="56" y="1596" type="line"/>
      <point x="64" y="1479" type="line"/>
      <point x="180" y="1595" type="line"/>
      <point x="180" y="3" type="line"/>
    </contour>
  </outline>
</glyph>
<glyph name="O.shadow" format="2">
  <advance width="-157"/>
  <outline>
    <contour>
      <point x="124" y="2" type="line"/>
      <point x="119" y="2" type="line"/>
      <point x="157" y="166" type="line"/>
      <point x="157" y="1600" type="line"/>
      <point x="66" y="1600" type="line"/>
      <point x="67" y="1606" type="line"/>
      <point x="-238" y="1301" type="line"/>
      <point x="-276" y="1135" type="line"/>
      <point x="-276" y="-302" type="line"/>
      <point x="-180" y="-302" type="line"/>
    </contour>
    <contour>
      <point x="110" y="-2" type="line"/>
      <point x="114" y="-2" type="line"/>
      <point x="-182" y="-298" type="line"/>
      <point x="-272" y="-298" type="line"/>
      <point x="-272" y="1135" type="line"/>
      <point x="-234" y="1299" type="line"/>
      <point x="61" y="1594" type="line"/>
      <point x="60" y="1589" type="line"/>
      <point x="67" y="1596" type="line"/>
      <point x="153" y="1596" type="line"/>
      <point x="153" y="166" type="line"/>
      <point x="115" y="3" type="line"/>
    </contour>
  </outline>
</glyph>
<glyph name="R.wide.shadow" format="2">
  <advance width="-141"/>
  <outline>
    <contour>
      <point x="-155" y="-302" type="line"/>
      <point x="146" y="-1" type="line"/>
      <point x="106" y="749" type="line"/>
      <point x="160" y="803" type="line"/>
      <point x="155" y="803" type="line"/>
      <point x="155" y="1600" type="line"/>
      <point x="35" y="1600" type="line"/>
      <point x="35" y="1605" type="line"/>
      <point x="-269" y="1301" type="line"/>
      <point x="-269" y="-302" type="line"/>
      <point x="-264" y="-302" type="line"/>
      <point x="-165" y="-203" type="line"/>
      <point x="-160" y="-302" type="line"/>
    </contour>
    <contour>
      <point x="-161" y="-193" type="line"/>
      <point x="-265" y="-297" type="line"/>
      <point x="-265" y="1299" type="line"/>
      <point x="31" y="1595" type="line"/>
      <point x="31" y="1591" type="line"/>
      <point x="36" y="1596" type="line"/>
      <point x="151" y="1596" type="line"/>
      <point x="151" y="804" type="line"/>
      <point x="146" y="799" type="line"/>
      <point x="150" y="799" type="line"/>
      <point x="102" y="751" type="line"/>
      <point x="142" y="1" type="line"/>
      <point x="-156" y="-297" type="line"/>
    </contour>
  </outline>
</glyph>
<glyph name="S.wide" format="2">
  <advance width="-3"/>
  <outline>
    <contour>
      <point x="-47" y="-152" type="line"/>
      <point x="104" y="-1" type="line"/>
      <point x="141" y="157" type="line"/>
      <point x="141" y="803" type="line"/>
      <point x="26" y="803" type="line"/>
      <point x="26" y="1435" type="line"/>
      <point x="42" y="1502" type="line"/>
      <point x="137" y="1597" type="line"/>
      <point x="137" y="1602" type="line"/>
      <point x="59" y="1602" type="line"/>
      <point x="-92" y="1451" type="line"/>
      <point x="-130" y="1285" type="line"/>
      <point x="-130" y="647" type="line"/>
      <point x="-15" y="647" type="line"/>
      <point x="-15" y="7" type="line"/>
      <point x="-28" y="-47" type="line"/>
      <point x="-128" y="-147" type="line"/>
      <point x="-128" y="-152" type="line"/>
    </contour>
    <contour>
      <point x="-24" y="-49" type="line"/>
      <point x="-11" y="7" type="line"/>
      <point x="-11" y="651" type="line"/>
      <point x="-126" y="651" type="line"/>
      <point x="-126" y="1285" type="line"/>
      <point x="-88" y="1449" type="line"/>
      <point x="61" y="1598" type="line"/>
      <point x="132" y="1598" type="line"/>
      <point x="38" y="1504" type="line"/>
      <point x="22" y="1435" type="line"/>
      <point x="22" y="799" type="line"/>
      <point x="137" y="799" type="line"/>
      <point x="137" y="157" type="line"/>
      <point x="100" y="1" type="line"/>
      <point x="-49" y="-148" type="line"/>
      <point x="-123" y="-148" type="line"/>
    </contour>
  </outline>
</glyph>
<glyph name="U.alt.shadow" format="2">
  <advance width="-152"/>
  <outline>
    <contour>
      <point x="161" y="2" type="line"/>
      <point x="156" y="2" type="line"/>
      <point x="156" y="1605" type="line"/>
      <point x="29" y="1478" type="line"/>
      <point x="29" y="1605" type="line"/>
      <point x="-275" y="1301" type="line"/>
      <point x="-275" y="-302" type="line"/>
      <point x="-143" y="-302" type="line"/>
    </contour>
    <contour>
      <point x="25" y="1468" type="line"/>
      <point x="152" y="1595" type="line"/>
      <point x="152" y="3" type="line"/>
      <point x="147" y="-2" type="line"/>
      <point x="151" y="-2" type="line"/>
      <point x="-145" y="-298" type="line"/>
      <point x="-271" y="-298" type="line"/>
      <point x="-271" y="1299" type="line"/>
      <point x="25" y="1595" type="line"/>
    </contour>
  </outline>
</glyph>
<glyph name="U.shadow" format="2">
  <advance width="-153"/>
  <outline>
    <contour>
      <point x="155" y="2" type="line"/>
      <point x="155" y="1605" type="line"/>
      <point x="29" y="1479" type="line"/>
      <point x="29" y="1605" type="line"/>
      <point x="-275" y="1301" type="line"/>
      <point x="-275" y="-302" type="line"/>
      <point x="-144" y="-302" type="line"/>
      <point x="160" y="2" type="line"/>
    </contour>
    <contour>
      <point x="25" y="1469" type="line"/>
      <point x="151" y="1595" type="line"/>
      <point x="151" y="3" type="line"/>
      <point x="146" y="-2" type="line"/>
      <point x="150" y="-2" type="line"/>
      <point x="-146" y="-298" type="line"/>
      <point x="-271" y="-298" type="line"/>
      <point x="-271" y="1299" type="line"/>
      <point x="25" y="1595" type="line"/>
    </contour>
  </outline>
</glyph>
<glyph name="V.shadow" format="2">
  <advance width="-152"/>
  <outline>
    <contour>
      <point x="-175" y="-302" type="line"/>
      <point x="126" y="-1" type="line"/>
      <point x="164" y="166" type="line"/>
      <point x="164" y="1602" type="line"/>
      <point x="159" y="1602" type="line"/>
      <point x="38" y="1481" type="line"/>
      <point x="38" y="1602" type="line"/>
      <point x="33" y="1602" type="line"/>
      <point x="-268" y="1301" type="line"/>
      <point x="-268" y="-302" type="line"/>
    </contour>
    <contour>
      <point x="34" y="1471" type="line"/>
      <point x="160" y="1597" type="line"/>
      <point x="160" y="166" type="line"/>
      <point x="122" y="1" type="line"/>
      <point x="-177" y="-298" type="line"/>
      <point x="-264" y="-298" type="line"/>
      <point x="-264" y="1299" type="line"/>
      <point x="34" y="1597" type="line"/>
    </contour>
  </outline>
</glyph>
<glyph name="comma.shadow" format="2">
  <advance width="-183"/>
  <outline>
    <contour>
      <point x="130" y="-140" type="line"/>
      <point x="125" y="-140" type="line"/>
      <point x="125" y="9" type="line"/>
      <point x="-179" y="-295" type="line"/>
      <point x="-179" y="-444" type="line"/>
      <point x="-174" y="-444" type="line"/>
    </contour>
    <contour>
      <point x="-175" y="-297" type="line"/>
      <point x="121" y="-1" type="line"/>
      <point x="121" y="-143" type="line"/>
      <point x="-175" y="-439" type="line"/>
    </contour>
  </outline>
</glyph>
<glyph name="five.shadow" format="2">
  <advance width="-169"/>
  <outline>
    <contour>
      <point x="152" y="2" type="line"/>
      <point x="147" y="2" type="line"/>
      <point x="147" y="801" type="line"/>
      <point x="27" y="801" type="line"/>
      <point x="27" y="1475" type="line"/>
      <point x="152" y="1600" type="line"/>
      <point x="27" y="1600" type="line"/>
      <point x="27" y="1605" type="line"/>
      <point x="-277" y="1301" type="line"/>
      <point x="-277" y="497" type="line"/>
      <point x="-157" y="497" type="line"/>
      <point x="-157" y="64" type="line"/>
      <point x="-275" y="-54" type="line"/>
      <point x="-275" y="-302" type="line"/>
      <point x="-152" y="-302" type="line"/>
    </contour>
    <contour>
      <point x="-153" y="62" type="line"/>
      <point x="-153" y="501" type="line"/>
      <point x="-273" y="501" type="line"/>
      <point x="-273" y="1299" type="line"/>
      <point x="23" y="1595" type="line"/>
      <point x="23" y="1591" type="line"/>
      <point x="28" y="1596" type="line"/>
      <point x="142" y="1596" type="line"/>
      <point x="23" y="1477" type="line"/>
      <point x="23" y="797" type="line"/>
      <point x="143" y="797" type="line"/>
      <point x="143" y="3" type="line"/>
      <point x="138" y="-2" type="line"/>
      <point x="142" y="-2" type="line"/>
      <point x="-154" y="-298" type="line"/>
      <point x="-271" y="-298" type="line"/>
      <point x="-271" y="-56" type="line"/>
    </contour>
  </outline>
</glyph>
<glyph name="five.wide" format="2">
  <advance width="2"/>
  <outline>
    <contour>
      <point x="-1" y="-152" type="line"/>
      <point x="150" y="-1" type="line"/>
      <point x="150" y="803" type="line"/>
      <point x="30" y="803" type="line"/>
      <point x="30" y="1477" type="line"/>
      <point x="150" y="1597" type="line"/>
      <point x="150" y="1602" type="line"/>
      <point x="25" y="1602" type="line"/>
      <point x="-126" y="1451" type="line"/>
      <point x="-126" y="647" type="line"/>
      <point x="-6" y="647" type="line"/>
      <point x="-6" y="-29" type="line"/>
      <point x="-124" y="-147" type="line"/>
      <point x="-124" y="-152" type="line"/>
    </contour>
    <contour>
      <point x="-2" y="-31" type="line"/>
      <point x="-2" y="651" type="line"/>
      <point x="-122" y="651" type="line"/>
      <point x="-122" y="1449" type="line"/>
      <point x="27" y="1598" type="line"/>
      <point x="145" y="1598" type="line"/>
      <point x="26" y="1479" type="line"/>
      <point x="26" y="799" type="line"/>
      <point x="146" y="799" type="line"/>
      <point x="146" y="1" type="line"/>
      <point x="-3" y="-148" type="line"/>
      <point x="-119" y="-148" type="line"/>
    </contour>
  </outline>
</glyph>
<glyph name="nine.shadow" format="2">
  <advance width="-159"/>
  <outline>
    <contour>
      <point x="30" y="1605" type="line"/>
      <point x="-274" y="1301" type="line"/>
      <point x="-274" y="497" type="line"/>
      <point x="-149" y="497" type="line"/>
      <point x="-149" y="67" type="line"/>
      <point x="-274" y="-58" type="line"/>
      <point x="-274" y="-302" type="line"/>
      <point x="-144" y="-302" type="line"/>
      <point x="160" y="2" type="line"/>
      <point x="155" y="2" type="line"/>
      <point x="155" y="1600" type="line"/>
      <point x="30" y="1600" type="line"/>
    </contour>
    <contour>
      <point x="146" y="797" type="line"/>
      <point x="151" y="797" type="line"/>
      <point x="151" y="3" type="line"/>
      <point x="146" y="-2" type="line"/>
      <point x="150" y="-2" type="line"/>
      <point x="-146" y="-298" type="line"/>
      <point x="-270" y="-298" type="line"/>
      <point x="-270" y="-60" type="line"/>
      <point x="-145" y="65" type="line"/>
      <point x="-145" y="501" type="line"/>
      <point x="-270" y="501" type="line"/>
      <point x="-270" y="1299" type="line"/>
      <point x="26" y="1595" type="line"/>
      <point x="26" y="1591" type="line"/>
      <point x="31" y="1596" type="line"/>
      <point x="151" y="1596" type="line"/>
      <point x="151" y="802" type="line"/>
    </contour>
  </outline>
</glyph>
<glyph name="nine.wide" format="2">
  <advance width="-16"/>
  <outline>
    <contour>
      <point x="-8" y="-152" type="line"/>
      <point x="143" y="-1" type="line"/>
      <point x="143" y="1602" type="line"/>
      <point x="14" y="1602" type="line"/>
      <point x="-137" y="1451" type="line"/>
      <point x="-137" y="647" type="line"/>
      <point x="-13" y="647" type="line"/>
      <point x="-13" y="-23" type="line"/>
      <point x="-137" y="-147" type="line"/>
      <point x="-137" y="-152" type="line"/>
    </contour>
    <contour>
      <point x="-9" y="-25" type="line"/>
      <point x="-9" y="651" type="line"/>
      <point x="-133" y="651" type="line"/>
      <point x="-133" y="1449" type="line"/>
      <point x="16" y="1598" type="line"/>
      <point x="139" y="1598" type="line"/>
      <point x="139" y="1" type="line"/>
      <point x="-10" y="-148" type="line"/>
      <point x="-132" y="-148" type="line"/>
    </contour>
  </outline>
</glyph>
<glyph name="one.narrow" format="2">
  <advance width="-36"/>
  <outline>
    <contour>
      <point x="101" y="1602" type="line"/>
      <point x="26" y="1602" type="line"/>
      <point x="-125" y="1451" type="line"/>
      <point x="-125" y="1446" type="line"/>
      <point x="-55" y="1446" type="line"/>
      <point x="-55" y="-152" type="line"/>
      <point x="-50" y="-152" type="line"/>
      <point x="101" y="-1" type="line"/>
    </contour>
    <contour>
      <point x="-51" y="1450" type="line"/>
      <point x="-120" y="1450" type="line"/>
      <point x="28" y="1598" type="line"/>
      <point x="97" y="1598" type="line"/>
      <point x="97" y="1" type="line"/>
      <point x="-51" y="-147" type="line"/>
    </contour>
  </outline>
</glyph>
<glyph name="one.shadow" format="2">
  <advance width="-162"/>
  <outline>
    <contour>
      <point x="163" y="2" type="line"/>
      <point x="91" y="2" type="line"/>
      <point x="91" y="1600" type="line"/>
      <point x="21" y="1600" type="line"/>
      <point x="21" y="1605" type="line"/>
      <point x="-283" y="1301" type="line"/>
      <point x="-283" y="1296" type="line"/>
      <point x="-213" y="1296" type="line"/>
      <point x="-213" y="-230" type="line"/>
      <point x="-280" y="-297" type="line"/>
      <point x="-280" y="-302" type="line"/>
      <point x="-141" y="-302" type="line"/>
    </contour>
    <contour>
      <point x="-209" y="-232" type="line"/>
      <point x="-209" y="1300" type="line"/>
      <point x="-278" y="1300" type="line"/>
      <point x="18" y="1596" type="line"/>
      <point x="87" y="1596" type="line"/>
      <point x="87" y="3" type="line"/>
      <point x="82" y="-2" type="line"/>
      <point x="153" y="-2" type="line"/>
      <point x="-143" y="-298" type="line"/>
      <point x="-275" y="-298" type="line"/>
    </contour>
  </outline>
</glyph>
<glyph name="period.shadow" format="2">
  <advance width="-264"/>
  <outline>
    <contour>
      <point x="45" y="2" type="line"/>
      <point x="36" y="2" type="line"/>
      <point x="36" y="11" type="line"/>
      <point x="-268" y="-293" type="line"/>
      <point x="-268" y="-302" type="line"/>
      <point x="-259" y="-302" type="line"/>
    </contour>
    <contour>
      <point x="32" y="-2" type="line"/>
      <point x="35" y="-2" type="line"/>
      <point x="-261" y="-298" type="line"/>
      <point x="-264" y="-298" type="line"/>
      <point x="-264" y="-295" type="line"/>
      <point x="32" y="1" type="line"/>
    </contour>
  </outline>
</glyph>
<glyph name="seven.alt" format="2">
  <advance width="16"/>
  <outline>
    <contour>
      <point x="-3" y="-152" type="line"/>
      <point x="2" y="-152" type="line"/>
      <point x="156" y="2" type="line"/>
      <point x="151" y="2" type="line"/>
      <point x="151" y="1600" type="line"/>
      <point x="51" y="1600" type="line"/>
      <point x="51" y="1605" type="line"/>
      <point x="-103" y="1451" type="line"/>
      <point x="-103" y="877" type="line"/>
      <point x="-98" y="877" type="line"/>
      <point x="-3" y="972" type="line"/>
    </contour>
    <contour>
      <point x="1" y="982" type="line"/>
      <point x="-99" y="882" type="line"/>
      <point x="-99" y="1449" type="line"/>
      <point x="47" y="1595" type="line"/>
      <point x="47" y="1591" type="line"/>
      <point x="52" y="1596" type="line"/>
      <point x="147" y="1596" type="line"/>
      <point x="147" y="-1" type="line"/>
      <point x="1" y="-147" type="line"/>
    </contour>
  </outline>
</glyph>
<glyph name="seven.shadow" format="2">
  <advance width="-164"/>
  <outline>
    <contour>
      <point x="-206" y="-302" type="line"/>
      <point x="98" y="2" type="line"/>
      <point x="93" y="2" type="line"/>
      <point x="152" y="1494" type="line"/>
      <point x="152" y="1494" type="line"/>
      <point x="152" y="1494" type="line"/>
      <point x="152" y="1600" type="line"/>
      <point x="27" y="1600" type="line"/>
      <point x="27" y="1605" type="line"/>
      <point x="-277" y="1301" type="line"/>
      <point x="-277" y="857" type="line"/>
      <point x="-272" y="857" type="line"/>
      <point x="-161" y="968" type="line"/>
      <point x="-211" y="-302" type="line"/>
    </contour>
    <contour>
      <point x="-157" y="978" type="line"/>
      <point x="-273" y="862" type="line"/>
      <point x="-273" y="1299" type="line"/>
      <point x="23" y="1595" type="line"/>
      <point x="23" y="1591" type="line"/>
      <point x="28" y="1596" type="line"/>
      <point x="148" y="1596" type="line"/>
      <point x="148" y="1494" type="line"/>
      <point x="89" y="-1" type="line"/>
      <point x="-207" y="-297" type="line"/>
    </contour>
  </outline>
</glyph>
<glyph name="six.wide" format="2">
  <advance width="-16"/>
  <outline>
    <contour>
      <point x="-9" y="-152" type="line"/>
      <point x="142" y="-1" type="line"/>
      <point x="142" y="803" type="line"/>
      <point x="17" y="803" type="line"/>
      <point x="17" y="1436" type="line"/>
      <point x="30" y="1485" type="line"/>
      <point x="142" y="1597" type="line"/>
      <point x="142" y="1602" type="line"/>
      <point x="53" y="1602" type="line"/>
      <point x="-98" y="1451" type="line"/>
      <point x="-139" y="1287" type="line"/>
      <point x="-139" y="-152" type="line"/>
    </contour>
    <contour>
      <point x="26" y="1487" type="line"/>
      <point x="13" y="1436" type="line"/>
      <point x="13" y="799" type="line"/>
      <point x="138" y="799" type="line"/>
      <point x="138" y="1" type="line"/>
      <point x="-11" y="-148" type="line"/>
      <point x="-135" y="-148" type="line"/>
      <point x="-135" y="1287" type="line"/>
      <point x="-94" y="1449" type="line"/>
      <point x="55" y="1598" type="line"/>
      <point x="137" y="1598" type="line"/>
    </contour>
  </outline>
</glyph>
<glyph name="three.wide.shadow" format="2">
  <advance width="-153"/>
  <outline>
    <contour>
      <point x="160" y="2" type="line"/>
      <point x="155" y="2" type="line"/>
      <point x="155" y="810" type="line"/>
      <point x="136" y="810" type="line"/>
      <point x="136" y="1600" type="line"/>
      <point x="46" y="1600" type="line"/>
      <point x="46" y="1605" type="line"/>
      <point x="-258" y="1301" type="line"/>
      <point x="-258" y="1296" type="line"/>
      <point x="-168" y="1296" type="line"/>
      <point x="-168" y="600" type="line"/>
      <point x="-257" y="511" type="line"/>
      <point x="-257" y="506" type="line"/>
      <point x="-149" y="506" type="line"/>
      <point x="-149" y="-172" type="line"/>
      <point x="-274" y="-297" type="line"/>
      <point x="-274" y="-302" type="line"/>
      <point x="-144" y="-302" type="line"/>
    </contour>
    <contour>
      <point x="-145" y="-174" type="line"/>
      <point x="-145" y="510" type="line"/>
      <point x="-252" y="510" type="line"/>
      <point x="-164" y="598" type="line"/>
      <point x="-164" y="1300" type="line"/>
      <point x="-253" y="1300" type="line"/>
      <point x="43" y="1596" type="line"/>
      <point x="132" y="1596" type="line"/>
      <point x="132" y="811" type="line"/>
      <point x="127" y="806" type="line"/>
      <point x="151" y="806" type="line"/>
      <point x="151" y="3" type="line"/>
      <point x="146" y="-2" type="line"/>
      <point x="150" y="-2" type="line"/>
      <point x="-146" y="-298" type="line"/>
      <point x="-269" y="-298" type="line"/>
    </contour>
  </outline>
</glyph>
<glyph name="two.shadow" format="2">
  <advance width="-160"/>
  <outline>
    <contour>
      <point x="152" y="2" type="line"/>
      <point x="152" y="348" type="line"/>
      <point x="23" y="219" type="line"/>
      <point x="23" y="653" type="line"/>
      <point x="150" y="780" type="line"/>
      <point x="145" y="780" type="line"/>
      <point x="145" y="1600" type="line"/>
      <point x="26" y="1600" type="line"/>
      <point x="26" y="1605" type="line"/>
      <point x="-278" y="1301" type="line"/>
      <point x="-278" y="867" type="line"/>
      <point x="-273" y="867" type="line"/>
      <point x="-159" y="981" type="line"/>
      <point x="-159" y="603" type="line"/>
      <point x="-281" y="481" type="line"/>
      <point x="-281" y="-302" type="line"/>
      <point x="-147" y="-302" type="line"/>
      <point x="157" y="2" type="line"/>
    </contour>
    <contour>
      <point x="-155" y="601" type="line"/>
      <point x="-155" y="991" type="line"/>
      <point x="-274" y="872" type="line"/>
      <point x="-274" y="1299" type="line"/>
      <point x="22" y="1595" type="line"/>
      <point x="22" y="1591" type="line"/>
      <point x="27" y="1596" type="line"/>
      <point x="141" y="1596" type="line"/>
      <point x="141" y="781" type="line"/>
      <point x="136" y="776" type="line"/>
      <point x="140" y="776" type="line"/>
      <point x="19" y="655" type="line"/>
      <point x="19" y="209" type="line"/>
      <point x="148" y="338" type="line"/>
      <point x="148" y="3" type="line"/>
      <point x="143" y="-2" type="line"/>
      <point x="147" y="-2" type="line"/>
      <point x="-149" y="-298" type="line"/>
      <point x="-277" y="-298" type="line"/>
      <point x="-277" y="479" type="line"/>
    </contour>
  </outline>
</glyph>
<glyph name="two.wide.shadow" format="2">
  <advance width="-151"/>
  <outline>
    <contour>
      <point x="-144" y="-302" type="line"/>
      <point x="160" y="2" type="line"/>
      <point x="28" y="2" type="line"/>
      <point x="28" y="676" type="line"/>
      <point x="153" y="801" type="line"/>
      <point x="148" y="801" type="line"/>
      <point x="148" y="1600" type="line"/>
      <point x="31" y="1600" type="line"/>
      <point x="31" y="1605" type="line"/>
      <point x="-273" y="1301" type="line"/>
      <point x="-273" y="1296" type="line"/>
      <point x="-156" y="1296" type="line"/>
      <point x="-156" y="622" type="line"/>
      <point x="-276" y="502" type="line"/>
      <point x="-276" y="-302" type="line"/>
    </contour>
    <contour>
      <point x="-152" y="620" type="line"/>
      <point x="-152" y="1300" type="line"/>
      <point x="-268" y="1300" type="line"/>
      <point x="28" y="1596" type="line"/>
      <point x="144" y="1596" type="line"/>
      <point x="144" y="802" type="line"/>
      <point x="139" y="797" type="line"/>
      <point x="143" y="797" type="line"/>
      <point x="24" y="678" type="line"/>
      <point x="24" y="-2" type="line"/>
      <point x="150" y="-2" type="line"/>
      <point x="-146" y="-298" type="line"/>
      <point x="-272" y="-298" type="line"/>
      <point x="-272" y="500" type="line"/>
    </contour>
  </outline>
</glyph>
<glyph name="zero.shadow" format="2">
  <advance width="-145"/>
  <outline>
    <contour>
      <point x="168" y="2" type="line"/>
      <point x="163" y="2" type="line"/>
      <point x="163" y="1600" type="line"/>
      <point x="35" y="1600" type="line"/>
      <point x="35" y="1605" type="line"/>
      <point x="-269" y="1301" type="line"/>
      <point x="-269" y="-302" type="line"/>
      <point x="-136" y="-302" type="line"/>
    </contour>
    <contour>
      <point x="154" y="-2" type="line"/>
      <point x="158" y="-2" type="line"/>
      <point x="-138" y="-298" type="line"/>
      <point x="-265" y="-298" type="line"/>
      <point x="-265" y="1299" type="line"/>
      <point x="31" y="1595" type="line"/>
      <point x="31" y="1591" type="line"/>
      <point x="36" y="1596" type="line"/>
      <point x="159" y="1596" type="line"/>
      <point x="159" y="3" type="line"/>
    </contour>
  </outline>
</glyph>
